:FULLY-SPECIFIED
:FORCE-ALL-JOINTS-BE-3DOF
:DEGREES
781
root 1.62501 16.3524 18.5703 -14.0331 77.1844 -20.2203
lfemur -36.7558 13.329 -14.1849
ltibia 50.3822 -0 0
lfoot -21.9312 20.6293 -0.00106883
ltoes 16.1695 -0 0
rfemur -15.5286 -22.767 21.492
rtibia 51.9775 -0 0
rfoot -18.0144 -32.4554 -0.000979825
rtoes -25.1956 0 0
lowerback 1.14292 4.68643 -0.891552
upperback -0.900836 6.23008 -3.80702
thorax -1.23344 3.12681 -3.53635
lowerneck -5.33197 -6.64082 -0.673608
upperneck -2.48573 -8.73575 5.12736
head 0.387758 -4.29734 1.5133
lclavicle 5.95447e-15 -6.97985e-19 -3.14258e-35
lhumerus -55.7769 -11.6302 94.8103
lradius 70.6007 -0 0
lwrist 12.9312 0 0
lhand -21.2559 -5.06351 0.00242887
lfingers 7.12502 -0 0
lthumb 5.12726 24.8535 0.00214756
rclavicle 5.95447e-15 -6.97985e-19 -3.14258e-35
rhumerus -30.6617 48.1218 -112.497
rradius 80.0928 -0 0
rwrist 5.90868 0 0
rhand -23.8763 -20.1049 -0.000518283
rfingers 7.12502 -0 0
rthumb 2.59674 -50.0678 -0.000266594
782
root 1.6279 16.3534 18.5961 -13.466 76.7739 -19.676
lfemur -36.736 13.2595 -14.0884
ltibia 50.2098 -0 0
lfoot -21.8568 20.6045 -0.00418302
ltoes 16.1903 -0 0
rfemur -15.4043 -22.6171 21.4634
rtibia 51.8044 -0 0
rfoot -18.0309 -32.3532 -0.00383475
rtoes -25.2059 0 0
lowerback 1.13543 4.69809 -0.856231
upperback -0.898712 6.24634 -3.78723
thorax -1.22384 3.13492 -3.53407
lowerneck -5.33345 -6.61377 -0.652303
upperneck -2.46886 -8.70205 5.10661
head 0.391423 -4.28045 1.50425
lclavicle 5.92784e-15 -2.74579e-18 -1.22988e-34
lhumerus -55.7643 -11.6007 94.7856
lradius 70.504 -0 0
lwrist 12.9574 0 0
lhand -21.1791 -5.00913 0.00950586
lfingers 7.12502 -0 0
lthumb 5.20136 24.9034 0.00840485
rclavicle 5.92784e-15 -2.74579e-18 -1.22988e-34
rhumerus -30.6536 48.1061 -112.471
rradius 80.0246 -0 0
rwrist 5.8641 0 0
rhand -23.7866 -20.1148 -0.0020284
rfingers 7.12502 -0 0
rthumb 2.68324 -50.0731 -0.00104336
783
root 1.6326 16.355 18.638 -12.6139 76.1042 -18.8612
lfemur -36.7043 13.1466 -13.9318
ltibia 49.9296 -0 0
lfoot -21.7359 20.5642 -0.0091759
ltoes 16.224 -0 0
rfemur -15.2027 -22.3733 21.4177
rtibia 51.523 -0 0
rfoot -18.0576 -32.1869 -0.00841215
rtoes -25.2226 0 0
lowerback 1.12328 4.71705 -0.798825
upperback -0.895246 6.27276 -3.75505
thorax -1.20824 3.14809 -3.53037
lowerneck -5.33584 -6.56979 -0.61768
upperneck -2.44147 -8.64726 5.07291
head 0.397374 -4.25301 1.48954
lclavicle 5.88458e-15 -6.0742e-18 -2.69778e-34
lhumerus -55.7438 -11.5527 94.7454
lradius 70.3467 -0 0
lwrist 13.0002 0 0
lhand -21.0542 -4.92072 0.0208524
lfingers 7.12502 -0 0
lthumb 5.3218 24.9845 0.0184371
rclavicle 5.88458e-15 -6.0742e-18 -2.69778e-34
rhumerus -30.6404 48.0804 -112.429
rradius 79.9136 -0 0
rwrist 5.79165 0 0
rhand -23.6408 -20.131 -0.00444955
rfingers 7.12502 -0 0
rthumb 2.82381 -50.0817 -0.00228874
784
root 1.63901 16.3572 18.6951 -11.573 75.1866 -17.8712
lfemur -36.6615 12.9923 -13.7183
ltibia 49.5472 -0 0
lfoot -21.571 20.5092 -0.0158487
ltoes 16.2701 -0 0
rfemur -14.9286 -22.0405 21.357
rtibia 51.1391 -0 0
rfoot -18.0941 -31.9602 -0.0145301
rtoes -25.2454 0 0
lowerback 1.10673 4.74293 -0.720531
upperback -0.890495 6.30879 -3.71116
thorax -1.18696 3.16605 -3.52532
lowerneck -5.33905 -6.50981 -0.570464
upperneck -2.40418 -8.57251 5.02698
head 0.40548 -4.21558 1.46948
lclavicle 5.82556e-15 -1.0614e-17 -4.6594e-34
lhumerus -55.7159 -11.4873 94.6907
lradius 70.1322 -0 0
lwrist 13.0584 0 0
lhand -20.8838 -4.80011 0.0360173
lfingers 7.12502 -0 0
lthumb 5.48609 25.0952 0.0318452
rclavicle 5.82556e-15 -1.0614e-17 -4.6594e-34
rhumerus -30.6225 48.0454 -112.372
rradius 79.7623 -0 0
rwrist 5.69283 0 0
rhand -23.442 -20.1531 -0.00768543
rfingers 7.12502 -0 0
rthumb 3.01555 -50.0935 -0.00395318
785
root 1.64704 16.3599 18.7667 -10.4342 74.0325 -16.7962
lfemur -36.6087 12.7991 -13.4516
ltibia 49.0688 -0 0
lfoot -21.3646 20.4404 -0.0239771
ltoes 16.3277 -0 0
rfemur -14.587 -21.6236 21.2836
rtibia 50.6588 -0 0
rfoot -18.1398 -31.6764 -0.0219832
rtoes -25.2739 0 0
lowerback 1.08607 4.77535 -0.622545
upperback -0.884509 6.35388 -3.65622
thorax -1.16032 3.18853 -3.51898
lowerneck -5.343 -6.43474 -0.511381
upperneck -2.35759 -8.47891 4.96959
head 0.415605 -4.16872 1.44439
lclavicle 5.75169e-15 -1.62959e-17 -7.04866e-34
lhumerus -55.6811 -11.4054 94.6223
lradius 69.8638 -0 0
lwrist 13.1314 0 0
lhand -20.6706 -4.64909 0.0544912
lfingers 7.12502 -0 0
lthumb 5.69174 25.2338 0.0481789
rclavicle 5.75169e-15 -1.62959e-17 -7.04866e-34
rhumerus -30.6002 48.0016 -112.301
rradius 79.5729 -0 0
rwrist 5.56916 0 0
rhand -23.1932 -20.1807 -0.0116273
rfingers 7.12502 -0 0
rthumb 3.25552 -50.1083 -0.00598076
